<mxfile host="app.diagrams.net" modified="2024-04-19T19:44:03.828Z" agent="Mozilla/5.0 (Windows NT 10.0; Win64; x64) AppleWebKit/537.36 (KHTML, like Gecko) Chrome/123.0.0.0 Safari/537.36" etag="GlpmCda19YZqLnuOtYIK" version="24.0.2" type="github">
  <diagram name="Page-1" id="t2sf2KXe5T-Ct0J4i0tK">
    <mxGraphModel dx="880" dy="567" grid="1" gridSize="10" guides="1" tooltips="1" connect="1" arrows="1" fold="1" page="1" pageScale="1" pageWidth="827" pageHeight="1169" math="0" shadow="0">
      <root>
        <mxCell id="0" />
        <mxCell id="1" parent="0" />
      </root>
    </mxGraphModel>
  </diagram>
</mxfile>
